<mxfile host="www.draw.io" modified="2020-01-21T08:34:17.037Z" agent="Mozilla/5.0 (X11; Linux x86_64) AppleWebKit/537.36 (KHTML, like Gecko) Chrome/65.0.3325.162 Safari/537.36" etag="6j_InXdpjVMhdkGo-Q1r" version="12.5.5" type="github">
  <diagram id="rk1Ur_PQ3VQTFEX3qdEk" name="Page-1">
    <mxGraphModel dx="936" dy="544" grid="1" gridSize="10" guides="1" tooltips="1" connect="1" arrows="1" fold="1" page="1" pageScale="1" pageWidth="827" pageHeight="1169" background="none" math="0" shadow="0">
      <root>
        <mxCell id="0"/>
        <mxCell id="1" parent="0"/>
        <mxCell id="Tt28HrMjvb1jJENj6p1V-5" style="edgeStyle=orthogonalEdgeStyle;rounded=0;orthogonalLoop=1;jettySize=auto;html=1;exitX=0.5;exitY=1;exitDx=0;exitDy=0;entryX=0;entryY=0.5;entryDx=0;entryDy=0;" edge="1" parent="1" source="Tt28HrMjvb1jJENj6p1V-2" target="Tt28HrMjvb1jJENj6p1V-4">
          <mxGeometry relative="1" as="geometry"/>
        </mxCell>
        <mxCell id="Tt28HrMjvb1jJENj6p1V-2" value="FTP-Server" style="rounded=1;whiteSpace=wrap;html=1;" vertex="1" parent="1">
          <mxGeometry x="120" y="200" width="80" height="40" as="geometry"/>
        </mxCell>
        <mxCell id="Tt28HrMjvb1jJENj6p1V-8" style="edgeStyle=orthogonalEdgeStyle;rounded=0;orthogonalLoop=1;jettySize=auto;html=1;exitX=1;exitY=0.5;exitDx=0;exitDy=0;entryX=0;entryY=0.5;entryDx=0;entryDy=0;" edge="1" parent="1" source="Tt28HrMjvb1jJENj6p1V-3" target="Tt28HrMjvb1jJENj6p1V-7">
          <mxGeometry relative="1" as="geometry"/>
        </mxCell>
        <mxCell id="Tt28HrMjvb1jJENj6p1V-3" value="FFServer" style="rounded=1;whiteSpace=wrap;html=1;" vertex="1" parent="1">
          <mxGeometry x="280" y="200" width="80" height="40" as="geometry"/>
        </mxCell>
        <mxCell id="Tt28HrMjvb1jJENj6p1V-6" style="edgeStyle=orthogonalEdgeStyle;rounded=0;orthogonalLoop=1;jettySize=auto;html=1;exitX=1;exitY=0.5;exitDx=0;exitDy=0;entryX=0.5;entryY=1;entryDx=0;entryDy=0;" edge="1" parent="1" source="Tt28HrMjvb1jJENj6p1V-4" target="Tt28HrMjvb1jJENj6p1V-3">
          <mxGeometry relative="1" as="geometry"/>
        </mxCell>
        <mxCell id="Tt28HrMjvb1jJENj6p1V-4" value="file-system" style="shape=cylinder;whiteSpace=wrap;html=1;boundedLbl=1;backgroundOutline=1;" vertex="1" parent="1">
          <mxGeometry x="200" y="280" width="80" height="60" as="geometry"/>
        </mxCell>
        <mxCell id="Tt28HrMjvb1jJENj6p1V-7" value="VIS" style="rounded=1;whiteSpace=wrap;html=1;" vertex="1" parent="1">
          <mxGeometry x="440" y="200" width="80" height="40" as="geometry"/>
        </mxCell>
        <mxCell id="Tt28HrMjvb1jJENj6p1V-9" style="edgeStyle=orthogonalEdgeStyle;rounded=0;orthogonalLoop=1;jettySize=auto;html=1;exitX=0.75;exitY=0;exitDx=0;exitDy=0;entryX=0.25;entryY=0;entryDx=0;entryDy=0;" edge="1" parent="1" source="Tt28HrMjvb1jJENj6p1V-3" target="Tt28HrMjvb1jJENj6p1V-3">
          <mxGeometry relative="1" as="geometry">
            <Array as="points">
              <mxPoint x="340" y="160"/>
              <mxPoint x="300" y="160"/>
            </Array>
          </mxGeometry>
        </mxCell>
      </root>
    </mxGraphModel>
  </diagram>
</mxfile>
